<svg xmlns="http://www.w3.org/2000/svg" viewBox="0 0 512 512">
  <defs>
    <linearGradient id="bgm" x1="0" y1="0" x2="1" y2="1">
      <stop offset="0" stop-color="#4f46e5"/>
      <stop offset="1" stop-color="#1e1b4b"/>
    </linearGradient>
  </defs>
  <rect width="512" height="512" fill="url(#bgm)"/>
  <g transform="translate(256 268) scale(0.78)">
    <rect x="-120" y="-78" width="240" height="150" rx="22" fill="#ffffff" opacity="0.30" transform="rotate(-9)"/>
    <rect x="-120" y="-78" width="240" height="150" rx="22" fill="#ffffff" opacity="0.55" transform="rotate(-3)"/>
    <rect x="-120" y="-78" width="240" height="150" rx="22" fill="#ffffff"/>
    <path d="M0 44 C-44 14 -70 -8 -70 -34 C-70 -56 -52 -70 -32 -70 C-18 -70 -6 -62 0 -50 C6 -62 18 -70 32 -70 C52 -70 70 -56 70 -34 C70 -8 44 14 0 44 Z" fill="#4f46e5"/>
  </g>
</svg>
